<svg id="visual" viewBox="0 0 900 600" width="900" height="600" xmlns="http://www.w3.org/2000/svg" xmlns:xlink="http://www.w3.org/1999/xlink" version="1.1"><rect x="0" y="0" width="900" height="600" fill="#eee1e1"></rect><defs><linearGradient id="grad1_0" x1="33.3%" y1="0%" x2="100%" y2="100%"><stop offset="20%" stop-color="#eee1e1" stop-opacity="1"></stop><stop offset="80%" stop-color="#eee1e1" stop-opacity="1"></stop></linearGradient></defs><defs><linearGradient id="grad2_0" x1="0%" y1="0%" x2="66.7%" y2="100%"><stop offset="20%" stop-color="#eee1e1" stop-opacity="1"></stop><stop offset="80%" stop-color="#eee1e1" stop-opacity="1"></stop></linearGradient></defs><g transform="translate(900, 0)"><path d="M0 324.5C-42.5 320.4 -85.1 316.4 -124.2 299.8C-163.3 283.2 -198.9 254.2 -219.9 219.9C-240.9 185.7 -247.4 146.2 -262.4 108.7C-277.4 71.2 -300.9 35.6 -324.5 0L0 0Z" fill="#CCCCCC"></path></g><g transform="translate(0, 600)"><path d="M0 -324.5C36.5 -299.2 72.9 -273.9 105.2 -254.1C137.5 -234.2 165.7 -219.8 200.8 -200.8C235.9 -181.9 278 -158.4 299.8 -124.2C321.6 -90 323 -45 324.5 0L0 0Z" fill="#CCCCCC"></path></g></svg>